Genre:Thriller
Language:English 
http://www.imdb.com/title/tt2226309/
Source:NoGRP Thanks!
Encoder:Tony

Format : AVI
Format/Info : Audio Video Interleave
File size : 969 MiB
Duration : 1h 30mn
Overall bit rate mode : Variable
Overall bit rate : 1 504 Kbps

Video
ID : 0
Format : MPEG-4 Visual
Format profile : Advanced Simple@L5
Format settings, BVOP : 2
Format settings, QPel : No
Format settings, GMC : No warppoints
Format settings, Matrix : Default (H.263)
Muxing mode : Packed bitstream
Codec ID : XVID
Codec ID/Hint : XviD
Duration : 1h 30mn
Bit rate : 1 368 Kbps
Width : 720 pixels
Height : 384 pixels
Display aspect ratio : 1.875
Frame rate : 30.000 fps
Color space : YUV
Chroma subsampling : 4:2:0
Bit depth : 8 bits
Scan type : Progressive
Compression mode : Lossy
Bits/(Pixel*Frame) : 0.165
Stream size : 882 MiB (91%)
Writing library : XviD 62

Audio
ID : 1
Format : MPEG Audio
Format version : Version 1
Format profile : Layer 3
Mode : Joint stereo
Mode extension : MS Stereo
Codec ID : 55
Codec ID/Hint : MP3
Duration : 1h 30mn
Bit rate mode : Variable
Bit rate : 122 Kbps
Channel(s) : 2 channels
Sampling rate : 44.1 KHz
Compression mode : Lossy
Stream size : 78.7 MiB (8%)
Alignment : Aligned on interleaves
Interleave, duration : 26 ms (0.78 video frame)
Interleave, preload duration : 567 ms


Plot:
When the daughter of a powerful senator is kidnapped by a psychopath, the senator requests a particular homicide detective..
